<svg id="Layer_1" data-name="Layer 1" xmlns="http://www.w3.org/2000/svg" viewBox="0 0 826 333"><defs><style>.cls-1{fill:#fff;}.cls-2{fill:#a8dadc;}.cls-3,.cls-4{font-size:196px;}.cls-3{fill:#457b9d;font-family:Lobster-Regular, Lobster;}.cls-4{fill:#ff686b;}.cls-4,.cls-7{font-family:Raleway-Regular, Raleway;}.cls-5{letter-spacing:-0.03em;}.cls-6{letter-spacing:0em;}.cls-7{font-size:35px;fill:#9f9aa4;}.cls-8{letter-spacing:0em;}.cls-9{letter-spacing:-0.01em;}.cls-10{letter-spacing:0em;}</style></defs><title>logo</title><rect class="cls-1" x="7.5" y="7.5" width="811" height="318"/><path class="cls-2" d="M876,135V438H80V135H876m10-15H70a5,5,0,0,0-5,5V448a5,5,0,0,0,5,5H886a5,5,0,0,0,5-5V125a5,5,0,0,0-5-5Z" transform="translate(-65 -120)"/><text class="cls-3" transform="translate(38.38 202.86)">Draft</text><text class="cls-4" transform="translate(459.5 206.58)">.<tspan class="cls-5" x="37.04" y="0">r</tspan><tspan class="cls-6" x="100.75" y="0">ed</tspan></text><text class="cls-7" transform="translate(301.5 291.67)">Insta<tspan class="cls-8" x="76.93" y="0">n</tspan><tspan x="97.16" y="0">t D</tspan><tspan class="cls-9" x="142.83" y="0">r</tspan><tspan class="cls-10" x="154.87" y="0">a</tspan><tspan x="173.81" y="0">fts</tspan></text></svg>